<svg width="31.000000" height="32.000000" viewBox="0 0 31 32" fill="none" xmlns="http://www.w3.org/2000/svg" xmlns:xlink="http://www.w3.org/1999/xlink">
	<desc>
			Created with Pixso.
	</desc>
	<defs/>
	<path id="Rectangle 13" d="M9.34 8.5L9.34 3Q9.34 2.39 9.58 1.83Q9.8 1.29 10.22 0.87Q10.63 0.46 11.17 0.23Q11.73 0 12.34 0L28 0Q28.6 0 29.16 0.23Q29.7 0.46 30.12 0.87Q30.53 1.29 30.76 1.83Q31 2.39 31 3L31 29Q31 29.6 30.76 30.16Q30.53 30.7 30.12 31.12Q29.7 31.53 29.16 31.76Q28.6 32 28 32L12.34 32Q11.73 32 11.17 31.76Q10.63 31.53 10.22 31.12Q9.8 30.7 9.58 30.16Q9.34 29.6 9.34 29L9.34 24.5L11.34 24.5L11.34 29Q11.34 29.2 11.42 29.38Q11.49 29.56 11.63 29.7Q11.77 29.84 11.95 29.92Q12.14 30 12.34 30L28 30Q28.2 30 28.38 29.92Q28.56 29.84 28.7 29.7Q28.84 29.56 28.92 29.38Q29 29.2 29 29L29 3Q29 2.79 28.92 2.61Q28.84 2.43 28.7 2.29Q28.56 2.15 28.38 2.07Q28.2 2 28 2L12.34 2Q12.14 2 11.95 2.07Q11.77 2.15 11.63 2.29Q11.49 2.43 11.42 2.61Q11.34 2.79 11.34 3L11.34 8.5L9.34 8.5Z" fill="#363535" fill-opacity="1.000000" fill-rule="evenodd"/>
	<path id="Vector 2" d="M18.27 15L14.32 11.05C13.92 10.65 13.92 10.03 14.32 9.63C14.72 9.24 15.34 9.24 15.73 9.63L21.39 15.29C21.79 15.68 21.79 16.31 21.39 16.7L15.73 22.36C15.34 22.75 14.72 22.75 14.32 22.36C13.92 21.96 13.92 21.34 14.32 20.94L18.27 17L0 17L0 15L18.27 15Z" fill="#363535" fill-opacity="1.000000" fill-rule="evenodd"/>
	<line id="Line 1" x1="24.827591" y1="3.000000" x2="24.827591" y2="29.000000" stroke="#363535" stroke-opacity="1.000000" stroke-width="2.000000"/>
</svg>
